<svg width="66" height="66" viewBox="0 0 66 66" fill="none" xmlns="http://www.w3.org/2000/svg">
<path d="M38.4885 35.025C39.6225 31.9986 37.9759 28.6099 34.8099 27.4564C31.6444 26.3031 28.1584 27.8218 27.0244 30.8482C25.8903 33.8751 27.5375 37.2637 30.703 38.417C33.8689 39.5705 37.3544 38.0517 38.4885 35.025Z" fill="#53C1DE"/>
<path fill-rule="evenodd" clip-rule="evenodd" d="M55.1846 29.5446C58.1572 25.2829 62.9465 17.1165 58.6905 12.2057C54.4547 7.31694 45.3936 10.4265 40.4564 12.4757C38.0547 7.79106 33.0166 -0.427802 26.5459 0.585683C20.1025 1.59499 18.5347 10.7707 17.9988 15.9537C12.5141 15.4918 2.88918 15.2943 0.660118 21.2431C-1.56258 27.1751 5.77543 33.4487 10.2182 36.6022C7.1933 40.9082 2.46239 48.7923 6.70164 53.6861C10.9697 58.6113 20.1446 55.7226 25.1297 53.6486C27.5456 58.3996 32.3584 66.4251 38.8056 65.4153C45.2731 64.4022 47.1018 55.2902 47.6479 50.0796C52.9523 50.4738 62.6567 50.4877 64.8516 44.6298C67.0593 38.7382 59.5795 32.6772 55.1846 29.5446ZM47.8461 47.2851C47.9549 44.5303 47.8381 41.5159 47.5088 38.3262C49.7775 36.1554 51.7986 33.9583 53.5038 31.8031C56.7227 34.1074 63.7498 39.2537 62.1096 43.6308C60.454 48.0491 52.0318 47.5913 47.8461 47.2851ZM38.2817 62.6458C33.4714 63.399 29.5307 55.9652 27.7438 52.4638C30.2615 51.2313 32.8931 49.691 35.5723 47.892C38.7743 48.7595 41.8671 49.3972 44.7461 49.7782C44.3554 53.4623 43.1132 61.8888 38.2817 62.6458ZM8.92293 51.9139C5.76141 48.2655 10.4093 41.3855 12.6364 38.2131C15.0571 39.7272 17.8178 41.1876 20.8382 42.5621C21.7187 45.5983 22.7558 48.4721 23.9095 51.0783C20.7912 52.3764 12.0992 55.579 8.92293 51.9139ZM3.40214 22.2422C5.06396 17.8074 13.743 18.402 17.789 18.7474C17.6564 21.5379 17.7314 24.5336 18.0133 27.6381C15.7209 29.8491 13.6581 32.1129 11.9002 34.3449C8.75645 32.11 1.7395 26.6796 3.40214 22.2422ZM27.0696 3.35518C31.9 2.59872 36.0873 10.2526 37.8338 13.6471C35.2517 14.8822 32.5919 16.3905 29.9413 18.1245C26.8221 17.2922 23.7712 16.6689 20.8987 16.2765C21.3321 12.0966 22.2444 4.11082 27.0696 3.35518ZM45.604 27.0694C47.5596 28.0627 49.3987 29.1064 51.0905 30.1798C49.9022 31.6733 48.5487 33.1947 47.0558 34.7158C46.6788 32.1518 46.1993 29.5991 45.604 27.0694ZM39.0541 16.221C39.828 17.9917 40.5466 19.9161 41.1981 21.9571C38.7133 20.9219 36.1818 19.9991 33.6117 19.1913C35.4482 18.0733 37.273 17.0782 39.0541 16.221ZM20.7422 25.127C20.6222 23.0254 20.606 20.9961 20.6923 19.0735C22.6706 19.349 24.7439 19.7403 26.8698 20.2386C24.7472 21.7731 22.7022 23.405 20.7422 25.127ZM19.8993 39.0186C17.8812 38.0284 16.0124 37.0021 14.3242 35.954C15.5465 34.4109 16.9262 32.8466 18.435 31.294C18.7961 33.8871 19.2855 36.4654 19.8993 39.0186ZM26.5255 49.8872C25.7283 48.0729 24.9875 46.1175 24.3191 44.0611C26.8253 45.0826 29.3721 46.0108 31.9546 46.8284C30.096 47.9971 28.2772 49.0225 26.5255 49.8872ZM44.8075 40.7952C44.965 42.9777 45.0104 45.0499 44.9403 46.9792C42.9269 46.7072 40.7949 46.3022 38.5867 45.7736C40.7316 44.1985 42.8114 42.5413 44.8075 40.7952ZM34.9833 44.822C30.9955 43.671 27.0841 42.2427 23.2848 40.5847C22.2312 36.6929 21.4801 32.73 21.0445 28.7414C23.9948 25.9942 27.1618 23.4661 30.5162 21.1858C34.5139 22.3227 38.4306 23.7486 42.2166 25.4505C43.2427 29.3265 43.9821 33.2683 44.4627 37.2309C41.4945 39.9695 38.3146 42.5004 34.9833 44.822ZM56.4698 13.9778C59.6449 17.6426 54.9268 24.8313 52.7754 27.921C50.3324 26.3631 47.6043 24.8723 44.6784 23.4975C43.8141 20.4536 42.8048 17.6044 41.6783 15.0462C45.2971 13.5469 53.3255 10.3488 56.4698 13.9778Z" fill="#53C1DE"/>
</svg>
